<?xml version="1.0" encoding="UTF-8" standalone="no"?>
<svg
   width="800px"
   height="800px"
   viewBox="0 0 24 24"
   fill="currentColor"
   version="1.1"
   xmlns="http://www.w3.org/2000/svg"
   xmlns:svg="http://www.w3.org/2000/svg">
  <path d="m 9.698667,8.9315412 a 0.76711098,0.76711098 0 0 0 -0.5423864,0.2247394 0.76711098,0.76711098 0 0 0 0,1.0847724 L 10.915227,12 9.1562806,13.758947 a 0.76711098,0.76711098 0 0 0 0,1.084773 0.76711098,0.76711098 0 0 0 1.0847724,0 L 12,13.084773 13.758947,14.84372 a 0.76711098,0.76711098 0 0 0 1.084773,0 0.76711098,0.76711098 0 0 0 0,-1.084773 L 13.084773,12 14.84372,10.241053 a 0.76711098,0.76711098 0 0 0 0,-1.0847724 0.76711098,0.76711098 0 0 0 -0.542387,-0.2247394 0.76711098,0.76711098 0 0 0 -0.542386,0.2247394 L 12,10.915227 10.241053,9.1562806 A 0.76711098,0.76711098 0 0 0 9.698667,8.9315412 Z" />
  <path d="m 12,4.3288902 c -4.2275466,0 -7.6711098,3.4435632 -7.6711098,7.6711098 0,4.227546 3.4435632,7.67111 7.6711098,7.67111 4.227546,0 7.67111,-3.443564 7.67111,-7.67111 0,-4.2275466 -3.443564,-7.6711098 -7.67111,-7.6711098 z m 0,1.5342219 c 3.398392,0 6.136888,2.7384956 6.136888,6.1368879 0,3.398392 -2.738496,6.136888 -6.136888,6.136888 C 8.6016077,18.136888 5.8631121,15.398392 5.8631121,12 5.8631121,8.6016077 8.6016077,5.8631121 12,5.8631121 Z" />
</svg>
